HIERARCHY
ROOT Hips
{
	OFFSET -0.001795 -0.223333 0.028219
	CHANNELS 6 Xposition Yposition Zposition Zrotation Yrotation Xrotation 
	JOINT LeftUpLeg
	{
		OFFSET 0.069520 -0.091406 -0.006815
		CHANNELS 3 Zrotation Yrotation Xrotation
		JOINT LeftLeg
		{
			OFFSET 0.034277 -0.375199 -0.004496
			CHANNELS 3 Zrotation Yrotation Xrotation
			JOINT LeftFoot
			{
				OFFSET -0.013596 -0.397961 -0.043693
				CHANNELS 3 Zrotation Yrotation Xrotation
				JOINT LeftToe
				{
					OFFSET 0.026358 -0.055791 0.119288
					CHANNELS 3 Zrotation Yrotation Xrotation
					End Site
					{
						OFFSET 0.000000 0.000000 0.000000
					}
				}
			}
		}
	}
	JOINT RightUpLeg
	{
		OFFSET -0.067670 -0.090522 -0.004320
		CHANNELS 3 Zrotation Yrotation Xrotation
		JOINT RightLeg
		{
			OFFSET -0.038290 -0.382569 -0.008850
			CHANNELS 3 Zrotation Yrotation Xrotation
			JOINT RightFoot
			{
				OFFSET 0.015774 -0.398415 -0.042312
				CHANNELS 3 Zrotation Yrotation Xrotation
				JOINT RightToe
				{
					OFFSET -0.025372 -0.048144 0.123348
					CHANNELS 3 Zrotation Yrotation Xrotation
					End Site
					{
						OFFSET 0.000000 0.000000 0.000000
					}
				}
			}
		}
	}
	JOINT Spine
	{
		OFFSET -0.002533 0.108963 -0.026696
		CHANNELS 3 Zrotation Yrotation Xrotation
		JOINT Spine1
		{
			OFFSET 0.005487 0.135180 0.001092
			CHANNELS 3 Zrotation Yrotation Xrotation
			JOINT Spine2
			{
				OFFSET 0.001457 0.052922 0.025425
				CHANNELS 3 Zrotation Yrotation Xrotation
				JOINT Neck
				{
					OFFSET -0.002778 0.213870 -0.042857
					CHANNELS 3 Zrotation Yrotation Xrotation
					JOINT Head
					{
						OFFSET 0.005152 0.064970 0.051349
						CHANNELS 3 Zrotation Yrotation Xrotation
						End Site
						{
							OFFSET 0.000000 0.000000 0.000000
						}
					}
				}
				JOINT LeftShoulder
				{
					OFFSET 0.078845 0.121749 -0.034090
					CHANNELS 3 Zrotation Yrotation Xrotation
					JOINT LeftArm
					{
						OFFSET 0.090977 0.030469 -0.008868
						CHANNELS 3 Zrotation Yrotation Xrotation
						JOINT LeftForeArm
						{
							OFFSET 0.259612 -0.012772 -0.027456
							CHANNELS 3 Zrotation Yrotation Xrotation
							JOINT LeftHand
							{
								OFFSET 0.249234 0.008986 -0.001171
								CHANNELS 3 Zrotation Yrotation Xrotation
								End Site
								{
									OFFSET 0.000000 0.000000 0.000000
								}
							}
						}
					}
				}
				JOINT RightShoulder
				{
					OFFSET -0.081759 0.118833 -0.038615
					CHANNELS 3 Zrotation Yrotation Xrotation
					JOINT RightArm
					{
						OFFSET -0.096012 0.032551 -0.009143
						CHANNELS 3 Zrotation Yrotation Xrotation
						JOINT RightForeArm
						{
							OFFSET -0.253742 -0.013329 -0.021401
							CHANNELS 3 Zrotation Yrotation Xrotation
							JOINT RightHand
							{
								OFFSET -0.255298 0.007772 -0.005559
								CHANNELS 3 Zrotation Yrotation Xrotation
								End Site
								{
									OFFSET 0.000000 0.000000 0.000000
								}
							}
						}
					}
				}
			}
		}
	}
}
MOTION
Frames: 14
Frame Time: 0.050000
0.001086 0.938392 -0.054454 1.435316 6.239610 10.194149 8.026827 -0.699896 -11.977874 -3.948635 0.359305 1.490251 1.345424 9.437559 18.934597 0.000000 0.000000 0.000000 -6.263743 0.746848 -13.333400 -3.344320 0.660849 4.553427 -2.051610 -7.905642 11.627580 0.000000 0.000000 0.000000 5.597879 0.011499 -3.208241 0.546196 -0.061579 -4.152997 -12.894970 1.569433 0.062895 12.803985 -6.747789 -11.744151 0.000000 0.000000 0.000000 -12.771012 -8.422047 1.153903 -29.196146 -39.099364 5.702852 69.722242 -62.188041 -44.765708 0.000000 0.000000 0.000000 9.998213 -4.418192 -2.064429 38.538703 32.475195 6.775178 -69.617580 53.836488 -31.816094 0.000000 0.000000 0.000000 
0.001597 0.938453 -0.053762 1.453540 6.272268 10.344795 7.786606 -0.715647 -11.993099 -3.605356 0.324269 1.310990 1.332738 9.422757 18.910881 0.000000 0.000000 0.000000 -6.029526 0.762061 -13.095498 -3.855154 0.697212 3.941637 -2.051692 -7.926722 11.768793 0.000000 0.000000 0.000000 5.720494 -0.023905 -2.867235 0.416013 -0.021911 -3.830093 -12.756069 1.589867 -0.314796 12.854661 -6.523386 -12.623992 0.000000 0.000000 0.000000 -13.014318 -9.213125 1.471120 -28.756438 -40.082495 5.844190 70.719739 -62.346605 -45.610291 0.000000 0.000000 0.000000 10.157986 -4.047888 -1.900529 38.050326 32.696527 6.745919 -69.918133 52.089502 -30.712370 0.000000 0.000000 0.000000 
0.002037 0.938738 -0.053293 1.484233 6.303883 10.448168 7.726108 -0.720901 -11.993427 -3.597065 0.323880 1.162215 1.295542 9.398944 18.999418 0.000000 0.000000 0.000000 -5.882426 0.769330 -12.928965 -4.223086 0.720953 3.521394 -2.043012 -7.938845 11.957604 0.000000 0.000000 0.000000 5.679339 -0.043266 -2.646457 0.621356 -0.118653 -3.637872 -12.902509 1.655713 -0.746572 12.993758 -6.464460 -13.051300 0.000000 0.000000 0.000000 -12.951378 -9.983100 1.784707 -28.537534 -41.138848 6.053358 69.242017 -61.792716 -44.097345 0.000000 0.000000 0.000000 10.581736 -3.765575 -1.770885 37.462548 32.859344 6.664779 -69.310134 50.848000 -29.426503 0.000000 0.000000 0.000000 
0.002343 0.938959 -0.053567 1.478301 6.536646 10.696439 7.599274 -0.753399 -12.459148 -3.350242 0.294961 1.394407 1.193483 9.301520 19.020229 0.000000 0.000000 0.000000 -5.756848 0.775319 -12.820878 -4.456026 0.709773 2.909269 -2.119088 -8.101417 12.235367 0.000000 0.000000 0.000000 5.773287 -0.080264 -2.324727 0.588048 -0.112963 -3.440694 -12.747116 1.758824 -1.079270 13.014360 -6.280209 -13.666174 0.000000 0.000000 0.000000 -13.006463 -10.600116 2.012251 -28.466914 -42.731522 6.414943 67.592684 -62.011015 -43.054867 0.000000 0.000000 0.000000 10.728646 -3.330423 -1.550623 36.966405 32.809590 6.541047 -69.727195 49.977426 -28.966525 0.000000 0.000000 0.000000 
0.002534 0.939139 -0.054780 1.496318 6.571788 10.959460 7.429697 -0.792574 -13.132218 -3.096280 0.262786 1.924725 1.199460 9.336222 19.068066 0.000000 0.000000 0.000000 -5.628915 0.792848 -12.936215 -4.776245 0.719880 2.479203 -2.110321 -8.121956 12.483355 0.000000 0.000000 0.000000 5.762033 -0.115545 -1.972562 0.624436 -0.121387 -3.585007 -12.654521 1.902814 -1.109828 13.005785 -6.109382 -14.238540 0.000000 0.000000 0.000000 -12.706666 -11.124485 2.253649 -28.650165 -44.220050 6.792964 66.292342 -61.342274 -41.607449 0.000000 0.000000 0.000000 10.648520 -3.097090 -1.418618 37.607173 33.226127 6.857189 -71.043648 49.871865 -29.542476 0.000000 0.000000 0.000000 
0.002634 0.939286 -0.056442 1.369196 6.536232 11.150314 7.509679 -0.814307 -13.766760 -3.006211 0.246621 2.470804 1.256708 9.424235 19.103542 0.000000 0.000000 0.000000 -5.228554 0.840030 -13.200922 -5.302944 0.775539 2.333211 -2.061412 -8.077754 12.724027 0.000000 0.000000 0.000000 5.656779 -0.143721 -1.640943 0.884115 -0.231102 -3.612703 -12.371050 1.991219 -1.109644 13.025611 -5.938916 -14.936054 0.000000 0.000000 0.000000 -12.962959 -11.408812 2.356393 -28.747058 -45.212867 7.062546 65.276590 -60.644577 -40.311987 0.000000 0.000000 0.000000 10.999768 -2.587343 -1.182629 38.267159 33.537052 7.123432 -73.627726 50.478459 -31.462957 0.000000 0.000000 0.000000 
0.002708 0.939326 -0.057846 1.164993 6.302213 11.295785 7.472870 -0.837067 -14.401699 -2.590097 0.189584 3.201529 1.435261 9.637784 19.071064 0.000000 0.000000 0.000000 -4.862026 0.883326 -13.324612 -5.641630 0.784718 1.948540 -1.908702 -7.863987 12.933861 0.000000 0.000000 0.000000 5.712888 -0.164722 -1.449047 0.917686 -0.247742 -3.606406 -12.104747 2.378705 -1.069379 13.207869 -5.952333 -15.279858 0.000000 0.000000 0.000000 -13.354186 -11.957234 2.537345 -28.608625 -45.368256 7.063503 64.551729 -60.597976 -39.768494 0.000000 0.000000 0.000000 11.512905 -2.316212 -1.032589 39.245575 33.537313 7.348070 -76.970534 52.277279 -34.793741 0.000000 0.000000 0.000000 
0.002854 0.939287 -0.058746 1.037722 5.887361 11.425544 7.576467 -0.827686 -14.594200 -2.599184 0.191980 3.315394 1.673522 9.918837 19.119500 0.000000 0.000000 0.000000 -4.763593 0.914093 -13.599203 -5.674101 0.779719 1.875917 -1.700344 -7.542762 12.981900 0.000000 0.000000 0.000000 5.623692 -0.171975 -1.330749 0.957777 -0.275581 -3.458935 -11.750078 2.474038 -1.107550 13.276668 -5.914529 -15.651734 0.000000 0.000000 0.000000 -13.573430 -12.092063 2.622882 -28.782496 -45.288813 7.119310 64.203468 -60.442667 -39.334115 0.000000 0.000000 0.000000 11.838722 -1.930239 -0.876346 40.333034 33.216728 7.497888 -79.674195 53.996702 -38.039537 0.000000 0.000000 0.000000 
0.003051 0.939377 -0.059378 0.939925 5.446224 11.418664 7.640547 -0.806246 -14.477403 -2.616611 0.199730 3.194918 1.899517 10.181546 19.199907 0.000000 0.000000 0.000000 -4.770995 0.927841 -13.693565 -5.566709 0.755550 1.776460 -1.474270 -7.194688 13.027462 0.000000 0.000000 0.000000 5.609141 -0.172519 -1.302494 0.905209 -0.258767 -3.403042 -11.446705 2.521378 -0.972392 13.147090 -5.773387 -16.021364 0.000000 0.000000 0.000000 -14.088932 -11.941433 2.568772 -29.005445 -44.786575 7.091956 63.357311 -61.078882 -39.085849 0.000000 0.000000 0.000000 12.249706 -1.806252 -0.855731 41.548162 32.658318 7.560967 -81.602395 56.222983 -41.388456 0.000000 0.000000 0.000000 
0.003307 0.939582 -0.060173 0.745320 4.470575 11.479320 7.724047 -0.769115 -14.361065 -2.565117 0.202466 3.112201 2.402874 10.769841 19.387752 0.000000 0.000000 0.000000 -4.797434 0.964296 -14.037474 -5.318524 0.715976 1.732413 -0.990871 -6.449466 13.088848 0.000000 0.000000 0.000000 5.633302 -0.183694 -1.160219 0.845775 -0.229552 -3.630096 -11.098100 2.741507 -0.862709 13.291185 -5.755039 -16.596012 0.000000 0.000000 0.000000 -14.509588 -11.628385 2.470254 -29.195888 -44.446001 7.082391 62.309333 -61.586778 -38.565423 0.000000 0.000000 0.000000 12.178401 -1.523133 -0.766858 41.948719 32.657214 7.646900 -81.421288 57.518588 -42.583778 0.000000 0.000000 0.000000 
0.003579 0.939791 -0.061339 0.574292 3.919000 11.407273 8.057055 -0.719214 -14.059734 -2.943333 0.257640 2.765169 2.671652 11.079224 19.541602 0.000000 0.000000 0.000000 -4.717013 0.999068 -14.367723 -5.236777 0.730874 2.067164 -0.713675 -6.029234 13.138937 0.000000 0.000000 0.000000 5.593704 -0.191017 -1.019567 0.884502 -0.249511 -3.652482 -10.907875 2.637978 -0.744034 13.253112 -5.557793 -17.469409 0.000000 0.000000 0.000000 -14.619217 -11.327703 2.416483 -29.809273 -45.040461 7.425316 60.142862 -61.995838 -37.167647 0.000000 0.000000 0.000000 12.047661 -1.222845 -0.678977 42.162519 33.038448 7.840349 -79.696375 58.028571 -42.011379 0.000000 0.000000 0.000000 
0.003896 0.939964 -0.062822 0.220260 2.944065 11.619875 8.436055 -0.667117 -14.121097 -3.098349 0.286247 2.628578 3.205902 11.701234 19.763906 0.000000 0.000000 0.000000 -4.499665 1.072539 -14.927679 -5.119691 0.707041 2.026168 -0.209479 -5.288883 13.325595 0.000000 0.000000 0.000000 5.902833 -0.205085 -1.027037 0.813891 -0.214896 -3.941673 -10.846769 2.766670 -0.633873 13.567888 -5.668662 -17.951362 0.000000 0.000000 0.000000 -14.736117 -11.441903 2.560244 -29.968547 -45.167171 7.507475 58.243108 -62.485637 -36.004631 0.000000 0.000000 0.000000 11.808770 -1.019775 -0.632321 42.264340 33.730637 8.128859 -77.162446 58.387396 -40.727959 0.000000 0.000000 0.000000 
0.004138 0.940211 -0.064132 0.027329 2.195650 11.728639 8.619262 -0.630357 -14.049041 -3.186567 0.305117 2.414050 3.589871 12.146947 19.985780 0.000000 0.000000 0.000000 -4.266230 1.134111 -15.336754 -5.290918 0.726853 2.067106 0.181953 -4.728535 13.495281 0.000000 0.000000 0.000000 6.033575 -0.223580 -0.879971 0.765402 -0.186904 -4.304946 -10.800007 2.928479 -0.788173 13.869453 -5.778493 -18.264025 0.000000 0.000000 0.000000 -15.060151 -11.519313 2.619903 -30.231198 -45.057493 7.599223 56.086552 -63.193182 -34.871688 0.000000 0.000000 0.000000 11.761489 -1.224177 -0.767521 42.128413 34.589533 8.445570 -73.684561 58.430758 -38.495359 0.000000 0.000000 0.000000 
0.004287 0.940174 -0.064869 -0.012447 1.512257 11.907342 8.714612 -0.602330 -13.880810 -3.390642 0.338376 1.942712 3.937509 12.545551 20.192269 0.000000 0.000000 0.000000 -3.970559 1.205609 -15.792189 -5.856523 0.800343 2.177809 0.512702 -4.234594 13.528644 0.000000 0.000000 0.000000 6.307150 -0.246177 -0.791940 0.440678 -0.043380 -4.726806 -10.826599 2.908668 -0.680121 13.612669 -5.477011 -19.066373 0.000000 0.000000 0.000000 -14.903711 -10.785658 2.373543 -30.859190 -45.270032 7.845485 55.569485 -64.333075 -35.105649 0.000000 0.000000 0.000000 11.542978 -1.672051 -1.031031 42.290685 35.596698 8.886873 -71.498022 58.279693 -37.066094 0.000000 0.000000 0.000000 
